<?xml version="1.0" standalone="no"?>
<!DOCTYPE svg PUBLIC "-//W3C//DTD SVG 20010904//EN"
 "http://www.w3.org/TR/2001/REC-SVG-20010904/DTD/svg10.dtd">
<svg version="1.0" xmlns="http://www.w3.org/2000/svg"
 width="1280.000000pt" height="854.000000pt" viewBox="0 0 1280.000000 854.000000"
 preserveAspectRatio="xMidYMid meet">

<g transform="translate(0.000000,854.000000) scale(0.100000,-0.100000)"
fill="#000000" stroke="none">
<path d="M0 4275 l0 -4265 2135 0 2135 0 0 4265 0 4265 -2135 0 -2135 0 0
-4265z"/>
<path d="M8530 4275 l0 -4265 2135 0 2135 0 0 4265 0 4265 -2135 0 -2135 0 0
-4265z"/>
<path d="M6235 5919 c-4 -6 -5 -12 -2 -15 2 -3 7 2 10 11 7 17 1 20 -8 4z"/>
<path d="M6556 5917 c3 -10 9 -15 12 -12 3 3 0 11 -7 18 -10 9 -11 8 -5 -6z"/>
<path d="M6160 5901 c0 -6 4 -13 10 -16 6 -3 7 1 4 9 -7 18 -14 21 -14 7z"/>
<path d="M6626 5893 c-6 -14 -5 -15 5 -6 7 7 10 15 7 18 -3 3 -9 -2 -12 -12z"/>
<path d="M6328 5783 c7 -3 16 -2 19 1 4 3 -2 6 -13 5 -11 0 -14 -3 -6 -6z"/>
<path d="M7476 5632 c-3 -9 -8 -38 -11 -63 -6 -43 -5 -46 29 -73 l36 -27 -20
51 c-11 28 -20 61 -20 73 l0 21 14 -20 c8 -12 41 -70 72 -130 32 -60 68 -123
80 -139 13 -17 28 -44 35 -60 l12 -30 9 35 c16 54 4 153 -24 207 -24 46 -111
123 -180 159 -24 12 -27 12 -32 -4z"/>
<path d="M7223 5514 c14 -129 155 -307 310 -391 42 -24 79 -43 82 -43 8 0
-135 203 -182 258 -61 72 -50 90 15 24 62 -64 127 -153 176 -244 38 -68 36
-89 -5 -68 -15 9 -24 9 -32 1 -8 -8 -6 -11 8 -11 11 0 39 -9 63 -20 l42 -19 0
22 c0 13 -4 27 -9 33 -5 5 -11 47 -13 94 -6 109 -27 151 -127 251 -83 83 -147
121 -243 144 -93 22 -91 22 -85 -31z"/>
<path d="M5379 5491 c-126 -83 -238 -227 -263 -338 -24 -110 -19 -116 24 -25
59 125 124 216 228 319 52 51 92 93 89 93 -2 0 -38 -22 -78 -49z"/>
<path d="M5123 5452 c-47 -73 -82 -146 -98 -209 -16 -60 -19 -278 -6 -418 l6
-70 8 68 c9 76 39 239 92 496 20 95 34 175 33 177 -2 2 -18 -18 -35 -44z"/>
<path d="M7185 5350 c-22 -10 -33 -19 -25 -20 8 -1 36 -5 62 -9 42 -7 46 -6
38 9 -19 36 -34 40 -75 20z"/>
<path d="M5338 5280 c-143 -94 -205 -190 -259 -398 -27 -107 -23 -144 6 -59
58 166 141 301 259 425 43 45 77 82 74 82 -2 0 -38 -22 -80 -50z"/>
<path d="M7193 5282 c20 -22 71 -33 101 -22 15 5 8 10 -30 19 -27 6 -58 15
-69 18 -19 5 -19 5 -2 -15z"/>
<path d="M5483 5256 c-77 -36 -219 -133 -242 -165 -34 -47 -102 -190 -131
-275 -51 -148 -43 -154 23 -21 36 72 84 155 106 185 57 76 184 204 255 257 66
49 64 53 -11 19z"/>
<path d="M7218 5223 c-10 -2 -18 -9 -18 -14 0 -6 4 -8 9 -5 11 7 123 -26 196
-58 65 -29 65 -29 -14 38 -50 42 -59 46 -105 45 -28 -1 -59 -3 -68 -6z"/>
<path d="M7756 5214 c-18 -18 -21 -60 -5 -70 8 -4 10 -30 7 -75 -3 -38 -4 -69
-2 -69 2 0 13 18 24 41 l21 41 49 -7 c47 -6 50 -5 62 20 15 33 3 55 -39 69
-17 6 -41 23 -53 39 -24 31 -42 34 -64 11z"/>
<path d="M4870 5159 c0 -49 34 -185 95 -374 53 -170 59 -140 15 78 -34 166
-87 337 -105 337 -3 0 -5 -18 -5 -41z"/>
<path d="M7255 5150 c55 -56 107 -90 153 -101 42 -9 137 2 153 18 7 7 2 9 -15
6 -40 -8 -109 13 -225 68 l-106 50 40 -41z"/>
<path d="M6294 5046 c-156 -100 -300 -130 -493 -102 -131 20 -114 26 -234 -86
l-78 -73 50 -135 c81 -215 92 -270 98 -472 l6 -178 368 0 369 0 0 550 c0 303
-1 550 -2 549 -2 -1 -40 -25 -84 -53z m-109 -186 c3 -5 12 -7 20 -3 29 10 64
-7 94 -49 34 -45 29 -68 -15 -68 -30 0 -32 -4 -44 -91 -6 -42 -24 -103 -42
-141 -17 -38 -31 -80 -32 -96 -1 -19 -6 -27 -18 -26 -10 1 -16 -2 -13 -6 3 -4
-2 -10 -10 -14 -8 -3 -19 2 -24 12 -17 30 -22 6 -23 -122 -1 -119 0 -127 22
-151 l23 -25 -25 0 c-29 0 -43 26 -53 103 -11 85 -39 43 -40 -60 0 -44 -3 -53
-18 -53 -24 0 -32 26 -19 64 5 17 13 79 17 139 l7 107 -34 0 c-18 0 -46 7 -62
15 -15 8 -29 15 -30 15 -2 0 -8 -43 -15 -95 -14 -100 -9 -170 14 -201 8 -11
15 -22 15 -26 0 -13 -20 -9 -35 6 -19 19 -49 133 -47 181 l1 40 -20 -49 c-17
-43 -19 -56 -9 -97 6 -26 18 -56 25 -66 18 -23 18 -33 1 -33 -21 0 -39 27 -58
89 -22 69 -22 84 -2 141 19 55 13 133 -14 170 -34 46 -35 63 -2 109 45 61 76
71 185 60 50 -6 106 -14 125 -19 60 -17 98 -12 114 13 8 12 19 58 25 102 8 66
7 83 -5 96 -8 8 -14 21 -14 27 0 14 26 16 35 2z"/>
<path d="M6160 4856 c0 -2 8 -10 18 -17 15 -13 16 -12 3 4 -13 16 -21 21 -21
13z"/>
<path d="M4816 5000 c9 -64 48 -168 104 -279 27 -53 54 -115 61 -139 7 -23 14
-40 17 -38 6 6 -52 208 -84 291 -24 65 -73 166 -94 195 -8 11 -10 4 -4 -30z"/>
<path d="M7517 5011 c-25 -13 -32 -22 -32 -46 0 -23 6 -32 27 -39 36 -13 58 6
58 50 0 26 4 33 23 36 17 3 15 5 -11 9 -21 4 -46 0 -65 -10z"/>
<path d="M7660 4986 c0 -2 8 -10 18 -17 15 -13 16 -12 3 4 -13 16 -21 21 -21
13z"/>
<path d="M5329 4951 c-159 -103 -262 -306 -276 -542 -8 -135 9 -133 36 4 43
218 114 372 234 503 32 35 57 64 55 64 -2 0 -24 -13 -49 -29z"/>
<path d="M7770 4943 c-37 -46 -70 -145 -76 -233 -4 -58 -2 -68 19 -93 l24 -29
7 74 c11 113 36 260 51 291 18 36 12 34 -25 -10z"/>
<path d="M7803 4819 c-6 -79 -10 -145 -9 -146 1 -1 19 37 40 84 l39 85 -29 60
-30 60 -11 -143z"/>
<path d="M4740 4929 c0 -29 38 -94 122 -210 35 -47 69 -95 76 -105 22 -34 -49
109 -91 181 -22 39 -55 90 -74 114 -29 39 -33 41 -33 20z"/>
<path d="M7600 4916 c-6 -19 -12 -67 -13 -106 -2 -67 0 -73 26 -96 15 -13 33
-24 39 -24 11 0 9 8 -15 75 -15 41 -28 167 -17 160 4 -2 17 -36 31 -75 23 -69
24 -71 30 -38 4 18 9 40 12 48 3 9 -11 29 -38 53 l-43 38 -12 -35z"/>
<path d="M7500 4885 c0 -2 14 -11 30 -20 33 -17 38 -14 14 9 -14 15 -44 22
-44 11z"/>
<path d="M7920 4828 c-68 -68 -130 -226 -130 -333 0 -71 14 -72 45 -3 29 66
135 371 130 376 -1 1 -22 -17 -45 -40z"/>
<path d="M7515 4825 c4 -11 12 -32 17 -47 5 -16 14 -28 19 -28 17 0 8 35 -17
65 -19 21 -24 24 -19 10z"/>
<path d="M7976 4786 c-17 -113 -132 -393 -181 -442 -19 -19 -23 -30 -16 -37 6
-6 11 -34 11 -61 l1 -51 17 28 c14 22 24 27 57 27 48 0 65 14 65 51 0 30 -42
64 -67 55 -39 -15 -29 12 27 70 111 115 147 238 107 364 l-14 44 -7 -48z"/>
<path d="M4736 4768 c134 -139 238 -368 304 -671 31 -139 49 -195 50 -152 0
11 -11 90 -24 175 -27 172 -75 331 -136 456 -66 132 -168 244 -224 244 -17 0
-11 -9 30 -52z"/>
<path d="M4718 4745 c28 -33 60 -71 72 -85 12 -14 8 -5 -8 20 -17 25 -49 63
-73 85 -41 39 -41 38 9 -20z"/>
<path d="M7512 4679 c31 -30 102 -109 158 -176 55 -68 102 -123 104 -123 8 0
-27 128 -46 163 -11 22 -44 64 -73 93 -41 41 -65 56 -111 70 -33 9 -66 19 -74
22 -8 2 10 -20 42 -49z"/>
<path d="M7420 4705 c0 -62 158 -249 249 -295 l44 -22 -30 38 c-17 22 -67 77
-110 124 -43 47 -95 105 -115 129 -28 33 -38 40 -38 26z"/>
<path d="M6780 4663 c0 -24 -7 -48 -15 -57 -9 -9 -11 -17 -5 -21 14 -9 13
-208 -2 -223 -8 -8 -16 -8 -32 0 -15 8 -12 1 12 -27 l34 -38 -4 -106 c-2 -58
-8 -114 -12 -123 -7 -16 -3 -18 34 -18 37 0 41 2 34 18 -4 9 -10 65 -12 123
l-4 106 34 38 c24 28 27 35 12 27 -36 -19 -44 2 -44 112 0 76 4 103 16 117 14
15 14 17 -3 15 -14 -1 -19 8 -21 39 -5 56 -22 70 -22 18z"/>
<path d="M5280 4623 c-58 -50 -135 -170 -161 -252 -14 -44 -23 -101 -25 -171
l-4 -105 29 110 c46 173 111 325 175 408 20 26 34 47 33 47 -2 0 -23 -17 -47
-37z"/>
<path d="M5011 4624 c0 -11 3 -14 6 -6 3 7 2 16 -1 19 -3 4 -6 -2 -5 -13z"/>
<path d="M4665 4553 c22 -53 50 -93 141 -203 44 -52 101 -126 129 -163 27 -38
51 -64 53 -58 6 19 -61 163 -105 223 -49 67 -211 238 -225 238 -4 0 -1 -17 7
-37z"/>
<path d="M7390 4572 c0 -23 86 -103 136 -128 99 -48 76 -19 -68 87 -38 27 -68
46 -68 41z"/>
<path d="M5345 4531 c-113 -81 -193 -252 -215 -463 -7 -59 -9 -113 -7 -120 3
-7 6 -4 6 8 1 32 39 170 77 278 39 114 77 187 141 269 24 31 43 57 41 57 -2
-1 -21 -14 -43 -29z"/>
<path d="M8008 4517 c-52 -56 -99 -117 -90 -117 17 0 62 41 93 86 35 51 33 70
-3 31z"/>
<path d="M5394 4372 c-127 -82 -220 -257 -247 -465 -12 -97 -4 -162 31 -239
l20 -43 2 135 c2 276 57 429 213 588 34 34 57 62 51 62 -6 0 -37 -17 -70 -38z"/>
<path d="M7407 4393 c-4 -7 -10 -34 -13 -60 -5 -46 -4 -49 29 -70 l34 -21 -18
63 c-9 34 -19 71 -21 81 -2 14 -6 15 -11 7z"/>
<path d="M4680 4374 c0 -3 15 -34 33 -67 20 -39 66 -96 124 -154 58 -58 121
-137 173 -215 45 -68 84 -125 86 -127 11 -12 -28 83 -61 149 -82 164 -202 316
-309 389 -25 18 -46 29 -46 25z"/>
<path d="M7454 4345 c5 -11 17 -47 28 -80 18 -53 84 -143 96 -130 6 6 -99 204
-117 218 -12 10 -14 9 -7 -8z"/>
<path d="M7534 4329 c-4 -8 -3 -9 4 -5 14 9 27 -21 36 -86 4 -26 16 -57 26
-70 l19 -23 1 35 c0 63 -67 180 -86 149z"/>
<path d="M7664 4322 c-19 -12 -25 -47 -11 -66 7 -10 29 -24 48 -30 l34 -12 3
42 c4 58 -35 92 -74 66z"/>
<path d="M7312 4213 c9 -152 81 -328 179 -441 l29 -33 0 61 c0 56 -4 67 -70
177 -67 113 -130 253 -130 290 0 31 24 -4 118 -168 l88 -157 23 68 24 68 -21
29 c-11 15 -38 44 -59 64 -41 39 -166 129 -178 129 -4 0 -5 -39 -3 -87z"/>
<path d="M7961 4243 c-35 -21 -96 -68 -135 -104 l-70 -66 15 -48 16 -47 57 85
c88 134 206 254 160 165 -26 -52 -144 -239 -176 -279 -46 -60 -32 -55 28 10
30 33 75 72 100 88 33 21 47 37 54 63 10 40 24 170 18 170 -2 0 -32 -17 -67
-37z"/>
<path d="M5388 4217 c-46 -35 -95 -109 -130 -197 -20 -49 -23 -73 -23 -230 0
-158 2 -183 24 -253 14 -42 26 -75 28 -73 2 2 -1 33 -7 70 -16 103 -13 360 5
430 20 76 77 184 127 241 47 53 37 58 -24 12z"/>
<path d="M4660 4225 c0 -3 37 -45 83 -93 124 -132 345 -431 491 -664 26 -43
50 -78 53 -78 9 0 -151 297 -223 412 -138 223 -260 365 -348 407 -48 22 -56
24 -56 16z"/>
<path d="M7647 4150 c-54 -85 -109 -254 -101 -313 14 -107 38 -243 44 -250 8
-10 27 140 41 338 16 232 27 247 28 40 1 -161 -10 -330 -25 -377 -3 -9 13 1
34 23 22 21 42 47 45 57 3 9 18 50 32 91 41 113 34 177 -31 312 l-50 104 -17
-25z"/>
<path d="M8056 4069 c-159 -81 -223 -160 -300 -369 l-16 -45 57 60 c31 33 109
123 174 200 120 145 159 186 159 168 0 -17 -234 -321 -315 -410 l-75 -82 70
24 c223 76 293 173 344 473 3 17 4 32 3 31 -1 0 -47 -23 -101 -50z"/>
<path d="M5642 3743 l3 -218 31 -66 c65 -137 152 -196 340 -231 203 -38 236
-51 314 -125 l70 -65 70 65 c78 74 111 87 314 125 188 35 275 94 340 231 l31
66 3 218 4 217 -762 0 -762 0 4 -217z m721 165 c12 -6 35 -11 50 -10 16 2 43
-4 60 -13 16 -8 34 -15 39 -15 16 0 90 -64 98 -86 12 -32 127 -96 180 -101 75
-6 122 33 85 71 -24 23 -34 20 -32 -11 3 -43 -34 -38 -47 5 -26 91 126 115
169 27 24 -52 20 -122 -10 -166 -37 -52 -96 -97 -147 -109 -132 -34 -161 -35
-369 -14 l-65 7 4 -36 c2 -19 -1 -38 -7 -41 -6 -4 -11 -12 -11 -18 0 -6 8 -3
19 6 10 9 27 17 37 16 11 0 42 0 71 0 28 0 54 -4 58 -10 8 -13 107 0 126 16
23 20 63 17 84 -6 15 -17 16 -24 7 -45 -6 -13 -23 -27 -37 -31 -15 -4 -25 -13
-25 -25 0 -10 -12 -26 -26 -36 -25 -16 -28 -16 -55 0 -24 13 -29 14 -29 2 0
-16 -35 -38 -52 -33 -6 2 -21 -6 -34 -19 -26 -26 -60 -30 -89 -9 -11 7 -35 13
-54 13 -21 0 -39 6 -44 15 -8 12 -16 13 -39 4 -21 -8 -33 -7 -48 2 -15 9 -25
9 -44 1 -19 -9 -32 -9 -55 1 -16 6 -34 9 -40 6 -16 -10 -59 12 -66 33 -5 17
-10 19 -26 10 -14 -7 -30 -7 -57 3 -52 17 -74 38 -69 65 2 14 -3 29 -14 39
-11 10 -19 26 -19 36 0 11 -7 26 -15 34 -17 17 -20 60 -5 69 5 3 7 25 4 48 -7
49 18 89 70 114 64 31 73 37 89 66 10 16 31 34 47 40 17 6 30 15 30 19 0 12
57 38 83 38 12 0 28 5 34 11 7 7 33 13 59 15 26 2 49 6 52 9 9 9 53 5 75 -7z"/>
<path d="M5330 3805 c-21 -60 -25 -87 -25 -185 1 -165 40 -284 140 -425 78
-111 212 -216 318 -251 89 -30 120 -45 110 -55 -12 -12 -124 17 -188 48 -27
14 -98 54 -157 90 -60 35 -150 84 -200 108 -96 45 -276 110 -285 102 -6 -7
122 -114 182 -152 68 -44 201 -110 282 -140 103 -39 202 -62 460 -106 247 -42
303 -43 303 -10 0 20 -90 51 -208 71 -283 49 -493 201 -612 443 -59 120 -81
216 -89 387 l-6 144 -25 -69z"/>
<path d="M4828 3761 c122 -113 171 -152 291 -235 l84 -58 -24 43 c-38 68 -125
150 -244 229 -99 65 -195 120 -210 120 -3 0 44 -45 103 -99z"/>
<path d="M7390 3844 c0 -29 132 -186 145 -172 3 3 -16 30 -42 59 -27 30 -61
69 -76 87 -15 19 -27 30 -27 26z"/>
<path d="M7455 3645 c-14 -13 -25 -28 -25 -34 0 -21 33 -41 70 -41 45 0 60
-18 60 -74 0 -20 5 -36 10 -36 12 0 13 62 0 115 -8 38 -57 95 -81 95 -5 0 -21
-11 -34 -25z"/>
<path d="M4790 3645 c0 -9 151 -124 223 -172 39 -26 98 -59 129 -74 31 -15 83
-45 115 -66 32 -21 65 -42 73 -47 33 -19 -149 159 -209 203 -72 55 -200 121
-278 144 -29 9 -53 14 -53 12z"/>
<path d="M7881 3591 c-10 -10 -30 -21 -43 -24 -21 -4 -21 -4 -2 -6 11 0 29
-10 39 -21 24 -26 60 -25 79 2 32 46 -33 89 -73 49z"/>
<path d="M7687 3542 l-27 -29 31 5 c18 3 26 8 19 12 -8 5 -7 12 5 24 9 9 12
16 8 16 -5 0 -21 -13 -36 -28z"/>
<path d="M7793 3470 c12 -46 24 -60 53 -60 16 0 28 8 36 25 15 34 -10 62 -61
67 l-38 3 10 -35z"/>
<path d="M7384 3471 c-50 -35 -83 -75 -123 -144 -33 -58 -85 -187 -77 -194 7
-7 83 103 158 230 38 64 72 117 75 117 21 0 -88 -228 -157 -331 -36 -52 -38
-59 -18 -48 42 22 143 134 167 185 25 53 43 214 24 214 -6 0 -28 -13 -49 -29z"/>
<path d="M4870 3435 c0 -13 90 -58 221 -110 183 -72 227 -96 296 -162 30 -30
64 -58 75 -64 34 -18 6 20 -64 87 -116 111 -271 197 -415 229 -37 9 -78 18
-90 20 -13 3 -23 3 -23 0z"/>
<path d="M7585 3402 l-100 -27 -31 -66 c-17 -35 -56 -91 -85 -124 l-54 -59 49
34 c26 19 93 73 148 119 54 46 101 81 104 79 11 -12 -202 -212 -291 -273 l-40
-28 41 6 c64 8 188 70 245 123 47 45 112 152 133 222 9 28 7 28 -119 -6z"/>
<path d="M7585 3159 c-27 -22 -66 -49 -85 -59 -62 -34 -27 -21 86 30 60 27
114 50 121 50 6 0 15 5 18 10 4 6 -12 10 -42 9 -40 0 -56 -7 -98 -40z"/>
<path d="M7745 3180 c-11 -18 -298 -157 -360 -175 -39 -12 -77 -16 -114 -12
l-56 6 35 -31 35 -30 110 5 c177 7 213 25 336 175 50 59 57 72 40 72 -11 0
-23 -5 -26 -10z"/>
<path d="M6595 3086 c-55 -25 -175 -145 -175 -174 0 -11 20 6 55 45 65 72 136
111 219 120 46 5 54 8 45 19 -18 21 -88 16 -144 -10z"/>
<path d="M6106 3081 c5 -4 34 -16 64 -25 70 -22 132 -58 187 -109 46 -42 66
-44 40 -4 -34 52 -208 147 -269 147 -19 0 -28 -4 -22 -9z"/>
<path d="M7107 3043 c-10 -9 -9 -23 1 -23 5 0 9 7 9 15 0 17 -1 18 -10 8z"/>
<path d="M6015 3018 c-14 -21 -14 -24 7 -41 39 -31 200 -104 256 -116 117 -24
107 -6 -18 32 -47 14 -111 42 -144 62 -32 19 -68 36 -80 36 -17 1 -18 2 -3 6
25 7 138 -33 241 -84 48 -24 90 -42 92 -40 9 9 -69 68 -129 98 -49 25 -178 69
-201 69 -3 0 -12 -10 -21 -22z"/>
<path d="M7318 3033 c6 -2 18 -2 25 0 6 3 1 5 -13 5 -14 0 -19 -2 -12 -5z"/>
<path d="M6692 3019 c-55 -11 -145 -59 -205 -111 -51 -43 -50 -58 4 -58 83 0
328 94 294 113 -12 6 -33 0 -73 -21 -31 -17 -86 -37 -122 -47 -36 -9 -81 -20
-100 -25 l-35 -9 25 20 c71 58 226 108 297 94 37 -7 45 11 17 39 -17 17 -36
18 -102 5z"/>
<path d="M7095 2945 c-73 -29 -85 -30 -85 -8 0 15 -1 15 -19 -1 -38 -34 -181
-72 -366 -97 -99 -13 -115 -21 -115 -54 0 -20 9 -24 81 -38 78 -16 83 -16 125
3 24 10 44 24 44 31 0 11 -14 10 -120 -7 -24 -5 -32 -3 -25 4 6 5 95 29 199
52 216 47 409 107 403 124 -6 19 -59 15 -122 -9z"/>
<path d="M6289 2800 c-2 -29 0 -54 5 -58 12 -7 -72 -41 -105 -41 -15 -1 -67
17 -116 39 -137 60 -186 70 -358 70 -104 -1 -167 4 -205 14 -30 9 -55 14 -57
12 -2 -1 9 -13 23 -27 24 -23 31 -24 152 -23 70 1 156 3 192 5 59 3 76 -2 185
-46 99 -40 133 -49 195 -52 64 -3 82 0 125 21 48 23 49 24 20 26 -19 1 -25 4
-15 8 21 10 27 92 6 92 -8 0 -21 3 -29 6 -12 4 -16 -6 -18 -46z"/>
<path d="M7240 2835 c-42 -24 -105 -28 -224 -15 -127 15 -111 19 -257 -63 -83
-47 -166 -58 -248 -33 -67 20 -95 21 -84 4 4 -7 8 -17 8 -23 0 -5 20 -23 43
-40 40 -28 50 -30 125 -30 87 1 137 13 177 45 21 17 15 16 -32 -5 -31 -14 -85
-28 -121 -32 -59 -5 -69 -3 -126 27 -34 18 -59 35 -57 37 2 3 18 -3 35 -12 20
-10 58 -16 104 -16 84 -1 152 21 226 74 64 46 101 55 186 46 136 -15 194 -11
242 16 41 25 52 35 36 35 -5 -1 -19 -7 -33 -15z"/>
<path d="M6444 2826 c-3 -8 -4 -27 -2 -43 2 -22 9 -29 31 -31 25 -3 27 0 27
30 0 19 5 39 12 46 9 9 4 12 -25 12 -23 0 -40 -5 -43 -14z"/>
<path d="M6178 2767 c-43 -5 -78 -13 -78 -17 0 -12 50 -30 85 -30 50 0 85 16
85 40 0 11 -3 19 -7 19 -5 -1 -43 -6 -85 -12z"/>
<path d="M7250 2763 c-39 -17 -128 -20 -256 -8 -71 7 -85 5 -122 -14 -57 -29
-53 -33 8 -10 63 24 76 24 162 -2 92 -28 157 -23 229 19 57 33 43 43 -21 15z"/>
<path d="M5735 2734 c-27 -7 -88 -14 -135 -15 -47 0 -101 -6 -120 -14 l-35
-12 38 -8 c73 -14 217 1 286 30 l64 27 110 -53 c94 -44 122 -53 184 -57 67 -4
78 -2 148 31 41 20 75 39 75 42 0 3 -26 -8 -57 -23 -32 -16 -73 -32 -90 -35
-52 -10 -131 10 -231 58 -103 50 -145 55 -237 29z"/>
<path d="M6892 2721 c-82 -28 -82 -35 -2 -65 88 -32 104 -33 95 -6 -4 12 0 31
9 45 15 23 15 25 -3 35 -26 13 -37 13 -99 -9z"/>
<path d="M5836 2710 c-17 -6 -16 -8 13 -18 27 -10 32 -16 29 -39 -2 -22 -12
-31 -48 -45 -26 -9 -36 -17 -25 -17 11 -1 36 8 55 19 19 11 50 27 69 36 18 8
32 17 30 18 -22 20 -108 52 -123 46z"/>
<path d="M5752 2668 c-22 -22 -7 -69 23 -68 5 0 2 5 -7 11 -21 12 -23 40 -6
57 7 7 10 12 7 12 -3 0 -10 -5 -17 -12z"/>
<path d="M7105 2630 c-3 -5 1 -10 10 -10 9 0 13 5 10 10 -3 6 -8 10 -10 10 -2
0 -7 -4 -10 -10z"/>
</g>
</svg>
