<?xml version="1.0" standalone="no"?>
<!DOCTYPE svg PUBLIC "-//W3C//DTD SVG 20010904//EN"
 "http://www.w3.org/TR/2001/REC-SVG-20010904/DTD/svg10.dtd">
<svg version="1.0" xmlns="http://www.w3.org/2000/svg"
 width="330.000000pt" height="207.000000pt" viewBox="0 0 330.000000 207.000000"
 preserveAspectRatio="xMidYMid meet">

<g transform="translate(0.000000,207.000000) scale(0.100000,-0.100000)"
fill="#000000" stroke="none">
<path d="M1593 1148 c-15 -9 -32 -14 -37 -11 -6 3 -8 2 -3 -2 4 -5 0 -19 -9
-33 -23 -34 -24 -82 -3 -116 10 -16 15 -34 12 -40 -3 -6 -3 -8 2 -4 4 4 22 -1
39 -11 36 -21 83 -20 118 3 14 9 28 13 32 9 4 -5 7 -3 6 2 -5 22 1 36 12 29 6
-4 8 -3 5 3 -4 6 3 22 14 37 18 23 18 26 4 26 -12 0 -15 5 -11 16 3 9 -3 27
-14 41 -11 14 -17 30 -13 37 3 6 2 8 -2 3 -5 -4 -20 0 -34 10 -34 22 -86 23
-118 1z m115 -18 c92 -56 49 -200 -59 -200 -33 0 -47 6 -75 34 -36 36 -43 71
-24 120 11 31 65 66 100 66 14 0 40 -9 58 -20z"/>
<path d="M1605 1050 c4 -6 11 -8 16 -5 14 9 11 15 -7 15 -8 0 -12 -5 -9 -10z"/>
<path d="M1680 1050 c0 -5 7 -7 15 -4 8 4 15 8 15 10 0 2 -7 4 -15 4 -8 0 -15
-4 -15 -10z"/>
</g>
</svg>
