<?xml version="1.0" standalone="no"?>
<!DOCTYPE svg PUBLIC "-//W3C//DTD SVG 20010904//EN"
 "http://www.w3.org/TR/2001/REC-SVG-20010904/DTD/svg10.dtd">
<svg version="1.0" xmlns="http://www.w3.org/2000/svg"
 width="1280.000000pt" height="854.000000pt" viewBox="0 0 1280.000000 854.000000"
 preserveAspectRatio="xMidYMid meet">

<g transform="translate(0.000000,854.000000) scale(0.100000,-0.100000)"
fill="#000000" stroke="none">
<path d="M2292 7532 c-41 -224 -79 -429 -84 -456 l-10 -48 -40 73 c-61 114
-141 211 -257 313 -140 123 -163 163 -171 301 l-6 100 -33 -69 c-73 -154 -67
-237 30 -409 33 -60 71 -140 84 -178 24 -70 51 -217 41 -226 -4 -4 -429 284
-686 466 l-65 46 53 -75 c272 -390 489 -705 487 -708 -1 -1 -28 7 -59 18 -141
48 -247 58 -467 45 -133 -8 -137 -7 -190 18 -30 14 -70 40 -90 59 -88 81 -84
81 -54 3 43 -115 95 -183 171 -223 11 -6 76 -27 143 -47 145 -42 221 -78 314
-148 61 -47 66 -52 45 -58 -13 -3 -209 -39 -435 -80 -227 -41 -413 -76 -413
-79 0 -3 197 -41 438 -84 240 -43 443 -82 450 -85 8 -5 -15 -22 -62 -46 -134
-69 -199 -125 -359 -309 -79 -90 -117 -108 -242 -116 l-100 -6 70 -33 c147
-70 239 -66 390 20 148 84 238 116 379 134 39 5 48 4 44 -7 -5 -11 -470 -686
-502 -728 -6 -8 3 -5 19 7 17 11 194 134 394 272 200 138 361 244 357 235 -50
-132 -77 -311 -65 -439 4 -44 8 -113 8 -153 1 -88 -21 -138 -99 -224 l-51 -57
54 18 c111 39 183 89 221 154 14 23 41 98 61 166 20 68 50 151 66 185 31 60
118 185 130 186 9 0 8 6 91 -452 40 -225 75 -408 78 -408 3 0 41 195 84 433
43 237 80 443 83 456 5 20 12 12 47 -55 74 -142 131 -209 299 -357 107 -94
129 -142 128 -275 0 -40 4 -70 8 -67 18 11 73 159 78 211 8 75 -10 134 -76
254 -32 58 -70 137 -84 176 -24 67 -53 222 -43 232 4 4 436 -290 686 -467 60
-43 63 -44 44 -16 -257 366 -521 756 -511 752 8 -3 45 -14 83 -26 131 -38 189
-44 386 -36 185 7 188 6 240 -18 29 -13 69 -40 89 -58 20 -19 46 -43 58 -53
l21 -19 -19 54 c-28 84 -58 136 -101 179 -51 51 -74 62 -220 105 -67 20 -150
50 -184 66 -60 31 -185 118 -186 130 0 7 43 16 538 105 177 32 322 61 322 64
0 3 -183 38 -408 78 -224 41 -429 79 -456 84 l-48 10 73 40 c142 77 200 126
380 325 68 75 114 95 234 103 l100 6 -69 33 c-153 72 -236 67 -406 -29 -59
-33 -139 -71 -178 -84 -72 -25 -219 -52 -229 -42 -3 2 105 164 239 358 249
360 261 378 256 378 -2 0 -174 -119 -383 -264 -209 -145 -381 -263 -383 -261
-1 1 7 28 18 60 45 130 53 206 46 414 l-7 193 25 52 c14 29 49 77 78 106 l52
53 -33 -6 c-57 -12 -162 -68 -203 -109 -44 -44 -67 -91 -98 -204 -33 -119 -68
-202 -116 -274 -49 -74 -82 -115 -89 -108 -2 2 -39 196 -82 431 -42 235 -80
427 -83 427 -3 0 -38 -183 -78 -408z m188 -328 l87 -476 -26 6 c-14 3 -56 11
-93 17 l-68 12 0 465 c0 256 3 462 7 459 4 -4 46 -221 93 -483z m417 379 c-8
-32 -8 -77 1 -180 17 -184 5 -278 -55 -456 l-27 -77 -89 -62 c-49 -33 -88 -57
-86 -52 2 5 23 48 46 95 70 144 119 318 148 519 18 126 57 271 70 258 2 -2 -2
-22 -8 -45z m-1126 -84 c16 -20 67 -69 114 -109 106 -90 197 -202 258 -319
l48 -90 -17 -93 c-9 -51 -20 -96 -23 -101 -4 -4 -17 26 -30 65 -51 160 -128
298 -278 505 -75 103 -133 206 -132 233 0 8 7 -1 16 -20 8 -19 28 -51 44 -71z
m-56 -519 c209 -144 385 -267 390 -272 7 -7 6 -12 -1 -15 -12 -4 -83 -50 -119
-77 -20 -15 -36 0 -350 316 -182 182 -323 327 -315 321 8 -6 186 -129 395
-273z m1703 188 c-24 -35 -149 -215 -278 -402 -212 -306 -236 -337 -247 -320
-8 11 -31 44 -53 74 l-40 55 327 327 c180 181 329 328 331 328 2 0 -16 -28
-40 -62z m343 -360 c-24 -12 -69 -49 -100 -82 -166 -177 -202 -212 -269 -257
-41 -27 -106 -65 -145 -83 l-72 -34 -92 16 c-50 9 -94 20 -97 23 -3 3 27 16
67 28 159 51 298 128 505 278 104 76 205 133 232 132 8 0 -5 -10 -29 -21z
m-1220 -107 c162 -51 303 -191 361 -359 18 -53 23 -89 23 -172 0 -83 -5 -119
-23 -172 -59 -172 -197 -307 -367 -361 -97 -30 -233 -30 -330 0 -271 85 -439
369 -381 643 69 327 400 521 717 421z m-1506 -5 c44 1 136 3 205 5 137 4 189
-5 336 -53 l92 -30 62 -89 c60 -87 65 -104 24 -75 -35 25 -206 94 -299 121
-49 14 -166 39 -260 55 -181 31 -270 54 -281 71 -4 8 1 8 17 3 13 -5 60 -9
104 -8z m771 -358 c-3 -13 -11 -53 -17 -90 l-12 -68 -471 1 c-259 0 -464 3
-456 7 22 8 900 170 934 171 25 1 28 -2 22 -21z m2079 -186 c-6 -5 -192 -41
-415 -82 -223 -40 -436 -78 -473 -85 l-69 -13 6 26 c4 15 11 57 17 95 l11 67
466 0 c256 0 462 -4 457 -8z m-2231 -178 c101 -18 121 -28 79 -38 -70 -18
-237 -91 -323 -141 -52 -31 -153 -98 -225 -150 -125 -90 -202 -134 -235 -135
-8 0 4 9 27 21 41 20 76 55 201 197 73 83 160 148 287 214 49 26 92 48 94 48
2 0 44 -7 95 -16z m201 -84 c4 -11 21 -39 39 -63 17 -23 35 -47 38 -53 4 -5
-142 -158 -324 -340 -321 -320 -328 -327 -268 -239 286 416 495 715 501 715 4
0 11 -9 14 -20z m1184 -31 c129 -64 297 -114 497 -148 192 -33 279 -55 290
-72 4 -8 -1 -8 -17 -3 -24 9 -98 10 -309 5 -132 -3 -208 8 -336 51 l-91 30
-62 89 c-34 49 -60 89 -58 89 2 0 41 -18 86 -41z m66 -451 c182 -182 323 -327
315 -321 -8 6 -186 129 -395 273 -209 144 -384 266 -388 270 -4 4 25 30 65 58
40 28 73 51 73 51 0 1 149 -148 330 -331z m-812 181 l67 -12 0 -470 c0 -259
-3 -468 -6 -465 -3 3 -45 223 -93 488 l-88 482 26 -6 c14 -3 56 -11 94 -17z
m-231 -85 c-76 -152 -115 -285 -156 -529 -28 -164 -47 -240 -71 -270 -13 -17
-13 -14 1 25 13 37 14 64 7 155 -13 175 -7 288 20 396 42 162 56 186 150 250
45 31 83 56 85 54 2 -2 -14 -38 -36 -81z m620 -176 c41 -90 100 -185 198 -321
94 -131 150 -227 150 -256 0 -9 -9 2 -20 24 -27 53 -48 76 -157 168 -109 92
-195 202 -257 330 l-46 92 16 85 c9 47 18 92 21 100 2 8 19 -26 37 -76 18 -50
44 -116 58 -146z"/>
<path d="M2046 6455 c-33 -13 -69 -34 -80 -46 l-21 -21 30 5 c17 3 50 13 75
22 66 25 157 17 207 -18 21 -15 43 -27 48 -27 15 0 -39 52 -84 81 -55 36 -96
37 -175 4z"/>
<path d="M2519 6451 c-48 -31 -99 -81 -82 -81 6 0 21 8 34 18 59 46 145 54
239 21 33 -11 66 -19 72 -17 19 7 -63 57 -118 74 -68 20 -94 18 -145 -15z"/>
<path d="M2088 6370 c-34 -10 -91 -50 -83 -58 3 -3 11 0 17 6 18 18 24 15 23
-14 0 -58 124 -83 191 -40 40 27 15 42 -27 17 -46 -28 -53 -26 -24 5 14 15 25
33 25 40 0 18 5 18 35 -2 14 -9 25 -12 25 -7 0 46 -105 76 -182 53z m0 -47
c-1 -16 3 -37 7 -48 9 -19 8 -19 -15 -4 -31 20 -36 42 -15 63 22 22 24 20 23
-11z"/>
<path d="M2523 6369 c-18 -5 -38 -19 -44 -30 -14 -28 -4 -36 19 -16 22 21 32
21 32 3 0 -7 11 -25 25 -40 29 -31 22 -33 -24 -5 -35 21 -47 20 -38 -5 3 -8
25 -20 49 -26 79 -22 164 9 155 56 -5 28 -4 28 26 12 20 -10 21 -10 9 5 -39
46 -135 67 -209 46z m157 -38 c16 -31 12 -47 -15 -59 -33 -15 -42 -15 -27 0 7
7 12 27 12 45 0 37 14 43 30 14z"/>
<path d="M2250 6091 c-11 -23 -27 -41 -34 -41 -8 0 -24 -9 -37 -21 -21 -18
-21 -20 -4 -13 66 24 113 27 154 11 38 -16 44 -16 82 0 41 16 88 13 154 -11
17 -7 17 -5 -4 13 -13 12 -29 21 -37 21 -7 0 -23 18 -34 40 -24 48 -32 51 -23
10 5 -27 3 -30 -20 -30 -13 0 -30 -7 -37 -15 -7 -8 -25 -15 -40 -15 -15 0 -33
7 -40 15 -7 8 -22 15 -35 15 -30 0 -36 9 -24 32 6 11 8 22 6 25 -3 3 -15 -13
-27 -36z"/>
<path d="M2191 5930 c-52 -16 -53 -17 -26 -24 18 -5 25 -10 17 -15 -7 -4 10
-18 46 -36 50 -26 67 -30 142 -30 73 0 93 4 144 29 43 21 55 31 45 38 -10 7
-8 8 9 5 12 -3 20 -1 16 4 -3 5 1 9 8 10 7 0 -14 9 -47 19 -79 26 -275 26
-354 0z m333 -40 c-5 -5 -42 -15 -82 -22 -57 -10 -87 -10 -144 0 -127 22 -104
32 72 32 105 0 161 -3 154 -10z"/>
<path d="M2093 5928 c-15 -20 -25 -38 -20 -38 3 0 12 11 21 25 17 26 16 35 -1
13z"/>
<path d="M2645 5916 c10 -14 19 -26 22 -26 7 0 -17 39 -28 46 -6 3 -3 -5 6
-20z"/>
<path d="M2348 5763 c12 -2 32 -2 45 0 12 2 2 4 -23 4 -25 0 -35 -2 -22 -4z"/>
<path d="M4742 7118 l3 -473 4028 -3 4027 -2 0 475 0 475 -4030 0 -4030 0 2
-472z"/>
<path d="M4740 5220 l0 -470 4030 0 4030 0 0 470 0 470 -4030 0 -4030 0 0
-470z"/>
<path d="M0 3325 l0 -475 6400 0 6400 0 0 475 0 475 -6400 0 -6400 0 0 -475z"/>
<path d="M0 1430 l0 -470 6400 0 6400 0 0 470 0 470 -6400 0 -6400 0 0 -470z"/>
</g>
</svg>
