<?xml version="1.0" standalone="no"?>
<!DOCTYPE svg PUBLIC "-//W3C//DTD SVG 20010904//EN"
 "http://www.w3.org/TR/2001/REC-SVG-20010904/DTD/svg10.dtd">
<svg version="1.0" xmlns="http://www.w3.org/2000/svg"
 width="960.000000pt" height="640.000000pt" viewBox="0 0 960.000000 640.000000"
 preserveAspectRatio="xMidYMid meet">

<g transform="translate(0.000000,640.000000) scale(0.100000,-0.100000)"
fill="#000000" stroke="none">
<path d="M0 3200 l0 -3200 4800 0 4800 0 0 1600 0 1600 -3200 0 -3200 0 0
1600 0 1600 -1600 0 -1600 0 0 -3200z m1692 2123 l86 -268 291 -5 291 -5 -147
-107 c-82 -59 -187 -135 -235 -170 l-86 -63 88 -270 c48 -149 86 -272 84 -274
-1 -2 -103 70 -225 159 -122 89 -227 164 -233 166 -6 2 -114 -71 -239 -162
-126 -91 -230 -164 -232 -162 -1 1 31 104 71 228 41 124 80 246 88 271 l14 46
-234 169 -234 169 290 3 290 2 87 270 c49 149 90 270 93 270 3 0 44 -120 92
-267z"/>
</g>
</svg>
