<?xml version="1.0" standalone="no"?>
<!DOCTYPE svg PUBLIC "-//W3C//DTD SVG 20010904//EN"
 "http://www.w3.org/TR/2001/REC-SVG-20010904/DTD/svg10.dtd">
<svg version="1.0" xmlns="http://www.w3.org/2000/svg"
 width="1280.000000pt" height="704.000000pt" viewBox="0 0 1280.000000 704.000000"
 preserveAspectRatio="xMidYMid meet">

<g transform="translate(0.000000,704.000000) scale(0.100000,-0.100000)"
fill="#000000" stroke="none">
<path d="M0 5870 l0 -1170 6400 0 6400 0 0 1170 0 1170 -6400 0 -6400 0 0
-1170z"/>
<path d="M6240 4419 c-82 -14 -211 -61 -297 -110 -56 -31 -108 -74 -183 -149
-117 -117 -173 -204 -221 -343 -86 -250 -60 -519 72 -754 61 -108 224 -271
332 -332 198 -111 423 -147 642 -102 184 38 337 123 471 263 126 131 199 269
235 443 45 218 9 444 -102 642 -61 108 -224 271 -332 332 -90 51 -215 96 -307
110 -77 13 -233 12 -310 0z m420 -68 c281 -92 480 -291 571 -571 37 -115 49
-274 30 -395 -54 -332 -282 -593 -611 -701 -79 -26 -97 -28 -250 -28 -153 0
-171 2 -250 28 -288 94 -492 298 -586 586 -26 79 -28 97 -28 250 0 159 1 168
32 260 93 276 289 477 555 566 113 38 157 43 307 40 119 -3 147 -8 230 -35z"/>
<path d="M6215 4251 c-254 -69 -450 -252 -532 -496 -25 -73 -27 -93 -27 -235
0 -142 2 -162 27 -235 39 -117 91 -199 187 -295 96 -96 178 -148 295 -187 73
-25 94 -27 235 -28 149 0 158 1 243 31 121 44 188 86 283 179 92 91 149 181
191 300 26 74 28 91 28 235 0 144 -2 161 -28 235 -42 119 -99 209 -191 300
-95 93 -162 136 -283 178 -79 27 -103 31 -223 34 -109 2 -149 -1 -205 -16z
m370 -15 c203 -54 382 -201 476 -391 57 -116 73 -189 73 -325 0 -136 -16 -209
-73 -325 -95 -192 -272 -336 -481 -392 -100 -27 -283 -24 -380 6 -252 78 -433
258 -511 511 -34 108 -34 293 0 400 86 275 294 468 570 526 81 17 242 12 326
-10z"/>
<path d="M6387 4168 c-4 -28 -5 -53 -4 -54 1 -1 22 -4 46 -5 29 -3 46 0 48 9
3 8 -6 12 -26 12 -17 0 -31 5 -31 10 0 6 11 10 24 10 37 0 42 19 7 26 -17 4
-29 10 -26 14 2 4 16 5 30 2 18 -3 25 0 25 12 0 12 -10 16 -44 16 l-43 0 -6
-52z"/>
<path d="M6256 4203 c-16 -4 -17 -11 -12 -56 4 -29 9 -53 11 -55 2 -3 21 0 42
5 48 11 65 48 39 87 -16 25 -36 30 -80 19z m52 -56 c2 -19 -1 -27 -12 -27 -11
0 -16 10 -16 31 0 38 24 35 28 -4z"/>
<path d="M6518 4155 l-15 -55 36 -10 c47 -13 51 -13 51 5 0 8 -9 15 -20 15
-22 0 -26 23 -11 63 9 23 0 37 -23 37 -2 0 -10 -25 -18 -55z"/>
<path d="M6066 4132 c-3 -5 -2 -34 1 -64 4 -42 9 -55 19 -51 8 3 14 11 14 19
0 8 6 15 13 15 6 1 19 3 27 4 8 1 22 3 30 4 9 0 0 15 -25 41 -37 38 -68 50
-79 32z m48 -54 c-4 -6 -10 -5 -15 3 -14 22 -10 33 6 19 8 -7 12 -17 9 -22z"/>
<path d="M6691 4096 c-26 -38 -28 -46 -16 -56 12 -10 16 -9 21 4 5 12 15 15
44 10 33 -5 39 -3 45 17 5 16 2 26 -11 36 -48 36 -51 35 -83 -11z m59 -6 c0
-5 -4 -10 -10 -10 -5 0 -10 5 -10 10 0 6 5 10 10 10 6 0 10 -4 10 -10z"/>
<path d="M6330 4080 c-128 -16 -245 -76 -335 -171 -108 -115 -155 -234 -155
-389 1 -502 604 -747 960 -390 171 171 210 440 97 655 -107 202 -341 324 -567
295z m176 -21 c242 -44 444 -286 444 -534 0 -129 -67 -289 -159 -383 -109
-111 -237 -164 -394 -163 -119 0 -202 26 -301 92 -88 58 -146 127 -192 224
-98 212 -57 444 110 611 134 134 304 187 492 153z"/>
<path d="M6600 3949 c16 -28 7 -33 -31 -20 -39 14 -46 9 -31 -24 10 -22 9 -25
-8 -25 -35 0 -22 -20 28 -42 26 -11 57 -25 69 -31 11 -5 26 -6 32 -3 7 5 11
-4 11 -23 0 -16 -5 -31 -11 -33 -17 -6 37 -65 66 -72 20 -5 25 -13 25 -37 0
-24 -4 -30 -15 -25 -24 9 -19 -37 10 -94 25 -49 20 -75 -10 -50 -16 14 -15 16
-33 -59 -5 -25 -7 -54 -2 -66 7 -17 3 -23 -24 -35 -17 -8 -35 -15 -41 -15 -29
-1 -53 -20 -77 -59 -16 -24 -28 -48 -28 -54 0 -47 -134 -49 -203 -4 -20 14
-46 39 -56 56 -25 39 -79 92 -87 83 -3 -3 8 -26 26 -52 35 -51 36 -66 1 -33
-28 26 -51 78 -51 116 0 52 -30 134 -51 139 -14 4 -18 11 -14 22 11 26 19 127
10 118 -5 -4 -21 -35 -36 -70 -21 -46 -29 -55 -29 -36 0 43 49 127 103 174 37
33 46 45 33 45 -14 0 -7 9 22 30 23 17 42 37 42 46 0 13 -5 12 -26 -5 -15 -12
-36 -21 -47 -21 -16 0 -12 6 19 29 52 38 121 111 106 111 -23 0 -77 -27 -109
-54 -38 -32 -41 -22 -12 37 l20 42 -40 -41 c-26 -28 -42 -55 -47 -80 -4 -22
-13 -48 -20 -59 -26 -37 -16 37 11 89 26 49 37 102 12 60 -7 -11 -24 -36 -39
-55 -15 -20 -31 -50 -34 -68 l-7 -33 -13 31 c-7 17 -14 31 -16 31 -2 0 -4 -21
-4 -47 -1 -27 -5 -73 -9 -104 l-7 -55 -30 29 c-16 16 -31 28 -33 26 -2 -2 14
-40 36 -84 45 -92 46 -99 19 -90 -11 3 -20 3 -20 -2 0 -12 47 -82 79 -118 15
-16 34 -39 42 -50 14 -19 14 -19 -16 -1 -16 10 -43 32 -58 50 l-29 31 7 -30
c10 -46 55 -97 121 -133 l59 -33 -40 4 c-22 3 -49 8 -60 12 -14 5 -8 -4 16
-28 39 -38 101 -57 187 -57 26 -1 57 -6 70 -13 22 -12 20 -14 -28 -31 -27 -10
-50 -22 -50 -27 0 -15 46 -10 93 10 49 21 95 17 159 -14 34 -17 68 -16 68 3 0
5 -15 16 -32 25 l-33 16 65 -5 c48 -4 75 -1 104 11 29 12 36 19 26 25 -10 6
-6 11 16 16 59 14 73 44 22 45 -18 0 -26 3 -18 6 8 3 23 14 33 24 10 11 26 19
36 19 19 0 91 72 91 91 0 6 -9 9 -20 6 -24 -6 -26 10 -5 37 19 25 19 37 0 30
-9 -4 -15 0 -15 9 0 8 -5 17 -10 19 -6 2 6 25 25 52 29 41 35 58 35 99 0 41
-2 47 -14 38 -11 -9 -15 -6 -20 14 -4 15 -11 23 -17 19 -7 -4 -9 11 -4 47 4
30 2 65 -4 79 -5 14 -10 19 -10 12 -2 -25 -19 -2 -25 33 -8 42 -21 45 -31 8
l-7 -28 -29 33 c-16 17 -33 32 -39 32 -5 0 -12 11 -16 25 -7 29 -39 55 -67 55
-15 0 -16 -3 -7 -21z"/>
<path d="M6390 3710 c0 -5 5 -10 10 -10 6 0 10 5 10 10 0 6 -4 10 -10 10 -5 0
-10 -4 -10 -10z"/>
<path d="M6281 3591 l-74 -6 62 -47 c33 -27 61 -46 61 -43 0 2 -23 23 -51 45
l-51 40 61 0 c33 0 63 5 66 10 3 6 5 9 3 8 -2 -1 -36 -4 -77 -7z"/>
<path d="M6447 3588 c2 -5 31 -8 64 -8 l60 0 -28 -26 c-26 -24 -25 -23 11 3
37 26 38 28 15 30 -77 7 -127 7 -122 1z"/>
<path d="M6484 3508 l-19 -23 23 19 c12 11 22 21 22 23 0 8 -8 2 -26 -19z"/>
<path d="M6481 3470 c0 -8 4 -24 9 -35 5 -13 9 -14 9 -5 0 8 -4 24 -9 35 -5
13 -9 14 -9 5z"/>
<path d="M6301 3434 c0 -11 3 -14 6 -6 3 7 2 16 -1 19 -3 4 -6 -2 -5 -13z"/>
<path d="M6365 3424 l-30 -26 32 22 33 21 45 -31 c25 -17 45 -29 45 -26 0 5
-85 66 -92 66 -2 0 -16 -12 -33 -26z"/>
<path d="M6280 3369 c0 -5 5 -7 10 -4 6 3 10 8 10 11 0 2 -4 4 -10 4 -5 0 -10
-5 -10 -11z"/>
<path d="M6505 3370 c3 -5 8 -10 11 -10 2 0 4 5 4 10 0 6 -5 10 -11 10 -5 0
-7 -4 -4 -10z"/>
<path d="M5947 4050 c-15 -12 -27 -29 -27 -39 0 -25 37 -61 64 -61 26 0 56 28
56 53 0 24 -27 21 -33 -3 -7 -25 -33 -26 -46 -1 -11 19 1 38 24 40 13 1 13 23
-1 28 -6 2 -23 -6 -37 -17z"/>
<path d="M6812 4017 c-46 -23 -50 -38 -11 -47 13 -3 24 -13 24 -23 0 -9 6 -22
12 -28 16 -16 65 90 50 109 -13 16 -24 15 -75 -11z m43 -27 c-3 -5 -11 -10
-16 -10 -6 0 -7 5 -4 10 3 6 11 10 16 10 6 0 7 -4 4 -10z"/>
<path d="M5861 3966 c-11 -13 -8 -17 55 -69 17 -14 23 -15 32 -4 9 10 2 21
-32 50 -35 29 -46 34 -55 23z"/>
<path d="M6903 3922 c-32 -21 -40 -31 -33 -42 8 -13 13 -13 31 -2 20 13 21 12
15 -10 -12 -38 -12 -51 1 -55 6 -2 14 5 18 16 4 14 15 21 31 21 14 0 27 7 30
15 6 14 -32 86 -44 84 -4 0 -26 -12 -49 -27z m65 -31 c3 -8 -1 -12 -9 -9 -7 2
-15 10 -17 17 -3 8 1 12 9 9 7 -2 15 -10 17 -17z"/>
<path d="M5787 3863 c-4 -3 -7 -10 -7 -15 0 -9 75 -58 88 -58 13 0 47 68 38
77 -4 4 -15 -3 -25 -15 l-17 -24 -35 21 c-20 12 -39 18 -42 14z"/>
<path d="M6930 3790 c0 -5 10 -18 21 -29 13 -12 19 -26 16 -35 -4 -9 -4 -23
-1 -31 5 -11 16 -6 50 23 50 43 54 59 18 72 -33 13 -104 13 -104 0z m85 -30
c-3 -5 -10 -10 -16 -10 -5 0 -9 5 -9 10 0 6 7 10 16 10 8 0 12 -4 9 -10z"/>
<path d="M5734 3745 c-20 -48 -19 -50 27 -64 23 -7 47 -15 53 -17 15 -6 39 67
30 91 -5 11 -15 15 -30 12 -13 -2 -24 0 -24 4 0 5 -9 9 -21 9 -13 0 -25 -11
-35 -35z m37 -18 c-13 -13 -26 -3 -16 12 3 6 11 8 17 5 6 -4 6 -10 -1 -17z
m49 -1 c0 -17 -14 -29 -23 -20 -8 8 3 34 14 34 5 0 9 -6 9 -14z"/>
<path d="M7005 3656 c-36 -26 -17 -106 26 -106 23 0 29 11 22 38 -6 26 -23 29
-23 5 0 -13 -3 -14 -11 -6 -20 20 -2 45 28 41 25 -3 28 -6 25 -37 -3 -31 -2
-33 12 -22 22 18 20 64 -2 84 -22 21 -52 22 -77 3z"/>
<path d="M5702 3624 c2 -14 14 -20 43 -24 27 -3 40 -10 40 -20 0 -11 -12 -15
-45 -15 -35 0 -45 -4 -48 -17 -3 -15 4 -18 45 -18 56 0 73 12 73 51 0 34 -19
49 -71 56 -36 5 -41 4 -37 -13z"/>
<path d="M7008 3510 c-21 -13 -24 -72 -5 -88 6 -6 30 -12 52 -14 31 -2 40 1
43 15 3 13 -4 17 -31 17 -33 0 -64 20 -50 33 3 4 23 7 44 7 33 0 59 14 47 25
-10 11 -85 14 -100 5z"/>
<path d="M5707 3473 c-4 -3 -7 -24 -7 -45 0 -35 2 -38 29 -38 53 0 90 11 84
26 -3 8 -13 14 -23 14 -11 0 -20 10 -24 25 -5 18 -13 25 -30 25 -12 0 -26 -3
-29 -7z m38 -33 c3 -5 -1 -10 -9 -10 -9 0 -16 5 -16 10 0 6 4 10 9 10 6 0 13
-4 16 -10z"/>
<path d="M6975 3380 c-3 -6 -4 -19 0 -30 4 -13 -1 -25 -14 -37 -32 -27 -26
-33 38 -33 54 0 71 8 71 35 0 11 -90 73 -95 65z m55 -66 c0 -2 -7 -4 -15 -4
-8 0 -15 4 -15 10 0 5 7 7 15 4 8 -4 15 -8 15 -10z"/>
<path d="M5806 3335 c7 -40 -10 -49 -20 -10 -9 37 -29 32 -21 -5 8 -36 -10
-41 -19 -5 -6 23 -26 36 -26 16 0 -9 21 -74 26 -80 1 -1 26 5 54 14 54 18 54
16 29 83 -14 36 -31 27 -23 -13z"/>
<path d="M5842 3235 c-7 -14 -16 -24 -21 -21 -15 10 -41 -5 -41 -23 0 -9 9
-31 20 -49 20 -32 21 -33 48 -17 53 32 65 44 58 61 -5 13 -9 14 -21 4 -21 -18
-32 -3 -16 22 11 17 10 23 -1 35 -12 12 -16 10 -26 -12z m-11 -68 c-1 -12 -15
-9 -19 4 -3 6 1 10 8 8 6 -3 11 -8 11 -12z"/>
<path d="M6905 3210 c-4 -6 4 -21 18 -34 14 -13 28 -33 32 -44 3 -12 10 -22
15 -22 13 0 18 23 8 43 -7 13 -5 17 10 17 18 0 42 18 42 31 0 3 -19 6 -42 6
-24 -1 -50 2 -59 7 -10 4 -20 3 -24 -4z"/>
<path d="M0 1175 l0 -1175 6400 0 6400 0 0 1175 0 1175 -6400 0 -6400 0 0
-1175z"/>
</g>
</svg>
