<?xml version="1.0" standalone="no"?>
<!DOCTYPE svg PUBLIC "-//W3C//DTD SVG 20010904//EN"
 "http://www.w3.org/TR/2001/REC-SVG-20010904/DTD/svg10.dtd">
<svg version="1.0" xmlns="http://www.w3.org/2000/svg"
 width="512.000000pt" height="512.000000pt" viewBox="0 0 512.000000 512.000000"
 preserveAspectRatio="xMidYMid meet">

<g transform="translate(0.000000,512.000000) scale(0.100000,-0.100000)"
fill="#000000" stroke="none">
<path d="M210 2490 l0 -910 2350 0 2350 0 0 910 0 910 -2350 0 -2350 0 0 -910z
m2210 800 c19 -36 23 -39 53 -34 17 3 38 7 45 10 20 6 14 -8 -19 -42 l-30 -31
20 -34 c29 -48 26 -52 -20 -28 l-41 21 -36 -34 -35 -33 6 46 c6 46 6 46 -33
64 -44 20 -52 35 -17 35 52 0 65 10 72 56 3 24 8 44 10 44 3 0 14 -18 25 -40z
m344 -54 c12 -3 31 -6 44 -6 34 0 26 -15 -18 -35 -39 -18 -39 -18 -33 -64 l6
-46 -35 33 -36 34 -41 -21 c-46 -24 -49 -20 -20 28 l20 34 -30 31 c-33 34 -39
48 -18 42 6 -3 27 -7 44 -10 30 -5 35 -2 55 37 l22 42 10 -47 c7 -34 15 -48
30 -52z m-575 -57 c46 24 47 24 25 -27 l-15 -37 37 -34 37 -34 -50 6 -50 6
-20 -42 -21 -42 -12 48 -12 47 -44 0 c-24 0 -44 3 -44 8 0 4 17 16 38 28 20
11 36 24 35 30 -1 5 -4 27 -8 49 l-7 40 35 -33 35 -34 41 21z m842 -14 c-9
-35 -9 -36 32 -63 l42 -27 -46 -3 c-47 -3 -47 -3 -59 -50 l-12 -47 -21 42
c-20 42 -21 42 -66 36 l-46 -6 33 35 c32 34 32 35 17 71 -21 50 -20 50 26 26
l42 -21 31 31 c35 35 42 29 27 -24z m-1057 -170 l-6 -46 41 -16 c22 -9 41 -19
41 -24 0 -4 -18 -10 -39 -14 -41 -7 -50 -21 -51 -80 l-1 -30 -26 43 c-17 29
-31 41 -42 38 -76 -23 -89 -16 -46 24 30 29 31 34 4 72 -27 37 -18 46 26 25
l36 -17 30 35 c17 19 33 35 36 35 2 0 1 -20 -3 -45z m1272 -9 c46 19 52 13 25
-24 -12 -17 -21 -34 -21 -38 0 -4 15 -23 33 -42 l32 -34 -35 7 c-19 3 -42 9
-51 11 -11 3 -25 -9 -42 -38 l-26 -43 -1 30 c-1 59 -10 73 -51 80 -21 4 -39
10 -39 14 0 5 19 15 41 24 l41 16 -6 48 -7 48 35 -37 36 -37 36 15z m-1443
-232 c13 -37 16 -39 62 -44 l49 -5 -41 -27 -41 -27 13 -46 c13 -43 13 -45 -4
-36 -10 6 -23 17 -31 25 -17 21 -40 20 -70 -4 -37 -29 -41 -25 -24 22 l15 42
-38 33 -38 33 49 -2 50 -2 14 43 c8 23 16 41 18 38 2 -2 10 -21 17 -43z m1550
1 c14 -39 14 -39 63 -37 l49 2 -38 -33 -38 -33 15 -42 c17 -47 13 -51 -24 -22
-30 24 -53 25 -70 4 -8 -8 -21 -19 -31 -25 -17 -9 -17 -7 -4 36 l13 46 -41 27
-41 27 49 5 c47 5 49 6 63 48 8 24 16 42 18 39 2 -2 10 -21 17 -42z"/>
</g>
</svg>
